<svg xmlns="http://www.w3.org/2000/svg" width="412" height="412" viewBox="0 0 412 412" version="1.1">
	<path d="M 223.333 68.731 C 238.802 84.314, 240.624 85.830, 245.833 87.455 C 263.385 92.931, 279.792 103.427, 295 118.910 C 311.295 135.498, 320.149 150.513, 326.373 172.112 C 334.580 200.588, 331.645 233.849, 318.575 260.490 C 316.689 264.334, 315.226 267.555, 315.323 267.647 C 315.420 267.739, 323.150 265.799, 332.500 263.336 C 343.645 260.400, 350.055 258.214, 351.111 256.989 C 353.021 254.775, 357.358 237.936, 359.058 226.136 C 360.795 214.083, 359.723 185.068, 357.126 173.829 C 352.335 153.101, 343.443 132.991, 331.678 116.277 C 323.764 105.033, 306.967 88.236, 295.723 80.322 C 272.236 63.789, 243.812 53.613, 217.500 52.317 L 206.500 51.775 223.333 68.731 M 166.500 56.965 C 139.416 64.040, 117.185 76.848, 97.012 97 C 75.591 118.397, 61.556 144.053, 54.824 174.119 C 52.784 183.233, 52.501 187.124, 52.509 206 C 52.518 228.960, 53.365 235.324, 58.695 252.500 C 61.223 260.645, 70.805 282, 71.933 282 C 72.274 282, 75.280 271.791, 78.613 259.312 L 84.674 236.625 83.335 230.562 C 81.211 220.949, 80.549 201.622, 81.959 190.421 C 88.099 141.639, 121.794 101.472, 169.115 86.523 C 178.031 83.707, 193.576 81.016, 200.986 81.006 L 205.472 81 192 67.500 C 184.590 60.075, 178.297 54.020, 178.014 54.045 C 177.731 54.071, 172.550 55.384, 166.500 56.965 M 244 122 L 244 141 220.421 141 L 196.841 141 197.368 143.750 C 197.657 145.262, 198.167 148.975, 198.500 152 C 199.718 163.056, 199.339 162.507, 207.805 165.506 C 223.679 171.130, 233.327 177.317, 244.128 188.798 C 252.189 197.367, 257.842 206.875, 260.652 216.592 C 262.114 221.647, 262.417 228.735, 262.755 265.706 L 263.149 308.912 269.825 309.206 L 276.500 309.500 269.003 313.938 C 232.729 335.414, 184.976 336.579, 148.027 316.892 C 132.018 308.362, 128.736 309.047, 185.703 309.022 C 222.454 309.006, 236.608 308.680, 238.528 307.805 C 242.178 306.142, 244 302.061, 244 295.550 L 244 290 178.674 290 L 113.349 290 111.277 287.750 C 110.137 286.512, 106.686 281.969, 103.608 277.653 C 100.283 272.991, 97.815 270.353, 97.526 271.153 C 97.260 271.894, 95.040 279.919, 92.595 288.988 L 88.149 305.475 91.549 309.625 C 93.419 311.908, 98.223 316.697, 102.225 320.268 C 124.665 340.293, 151.165 353.167, 180.129 358.114 C 190.781 359.934, 195.070 360.152, 211 359.685 C 224.385 359.293, 231.897 358.587, 238.171 357.132 C 271.848 349.323, 301.740 331.627, 322.693 307.094 C 329.797 298.777, 339.355 285.022, 338.574 284.241 C 338.303 283.970, 328.374 286.341, 316.509 289.509 C 304.644 292.678, 294.677 295.010, 294.359 294.693 C 293.897 294.230, 306.426 163.814, 308.668 145.750 L 309.258 141 285.629 141 L 262 141 262 122 L 262 103 253 103 L 244 103 244 122 M 153.965 179.942 C 131.950 184.588, 115.147 196.318, 107.690 212.245 C 105.080 217.818, 103 226.159, 103 231.049 L 103 234 173.500 234 L 244 234 243.983 231.750 C 243.973 230.512, 243.320 226.454, 242.531 222.730 C 238.864 205.427, 225.218 190.886, 205.780 183.569 C 190.856 177.952, 170.235 176.508, 153.965 179.942 M 103 262.507 L 103 272.014 173.250 271.757 L 243.500 271.500 243.788 262.250 L 244.075 253 173.538 253 L 103 253 103 262.507" stroke="none" fill="black" fill-rule="evenodd"/>
</svg>