<svg xmlns="http://www.w3.org/2000/svg" width="412" height="412" viewBox="0 0 412 412" version="1.1">
	<path d="M 228.933 22.676 C 250.573 44.166, 252.448 45.775, 257.788 47.452 C 280.668 54.635, 303.355 68.429, 321.858 86.407 C 373.846 136.919, 387.392 212.012, 356.403 277.906 C 353.970 283.080, 352.171 287.504, 352.405 287.738 C 352.639 287.972, 363.397 285.346, 376.312 281.902 L 399.793 275.641 402.933 265.415 C 406.700 253.147, 409.871 237.348, 410.694 226.750 C 411.026 222.487, 411.680 219, 412.148 219 C 412.617 219, 413 212.673, 413 204.941 C 413 197.209, 412.644 191.102, 412.209 191.371 C 411.775 191.639, 410.875 186.736, 410.210 180.475 C 405.694 137.942, 384.079 93.346, 352.532 61.470 C 316.297 24.858, 269.059 3.476, 217.609 0.401 L 205.789 -0.306 228.933 22.676 M 155.500 6.512 C 75.777 27.122, 16.797 91.044, 2.946 171.849 C 0.427 186.544, 0.196 223.439, 2.532 238 C 4.515 250.358, 9.280 268.212, 13.540 279.241 C 16.998 288.195, 25.405 305.793, 26.981 307.377 C 27.480 307.878, 28.292 306.592, 28.874 304.377 C 29.436 302.245, 33.102 288.575, 37.022 274 L 44.150 247.500 42.550 239.500 C 29.221 172.880, 57.222 104.773, 113.331 67.342 C 136.660 51.779, 162.510 42.729, 191.818 39.862 L 204.136 38.657 186.829 21.329 C 173.229 7.712, 168.984 4.020, 167.011 4.093 C 165.630 4.144, 160.450 5.233, 155.500 6.512 M 256 94 L 256 119 224.955 119 L 193.909 119 194.449 122.250 C 194.746 124.037, 195.676 130.647, 196.516 136.938 C 197.356 143.229, 198.146 148.455, 198.271 148.551 C 198.397 148.646, 201.650 149.718, 205.500 150.932 C 215.595 154.115, 231.799 162.050, 240.532 168.087 C 248.956 173.911, 261.054 186.244, 267.155 195.228 C 272.534 203.150, 276.493 211.819, 279.151 221.500 C 281.266 229.206, 281.362 231.584, 281.758 286.214 L 282.169 342.927 291.335 343.214 L 300.500 343.500 293.969 347.627 C 264.653 366.153, 226.865 375.320, 192.750 372.182 C 176.716 370.708, 167.960 368.947, 153.549 364.301 C 142.173 360.633, 119.718 349.848, 114.500 345.545 L 111.500 343.072 179.300 343.036 C 253.682 342.997, 251.301 343.187, 254.483 337.033 C 255.470 335.123, 256 331.289, 256 326.050 L 256 318 169.093 318 L 82.186 318 78.115 313.137 C 75.876 310.463, 71.375 304.364, 68.114 299.584 C 64.852 294.805, 61.975 291.255, 61.721 291.697 C 61.466 292.139, 58.466 302.978, 55.053 315.785 L 48.849 339.069 54.574 345.285 C 125.921 422.741, 243.780 433.996, 328.589 371.452 C 345.033 359.325, 361.825 342.208, 373.668 325.500 C 380.517 315.838, 384.489 308.889, 382.849 309.440 C 376.622 311.529, 323.766 325.100, 323.376 324.709 C 323.098 324.431, 327.400 278.956, 332.935 223.652 C 338.471 168.349, 343 122.178, 343 121.050 C 343 119.027, 342.587 119, 312 119 L 281 119 281 94 L 281 69 268.500 69 L 256 69 256 94 M 152.500 169.159 C 116.878 171.506, 88 188.164, 75.060 213.831 C 72.035 219.832, 69 232.266, 69 238.660 L 69 244 162.500 244 L 256 244 256 238.660 C 256 222.031, 245.663 201.906, 231.242 190.459 C 211.170 174.526, 183.722 167.102, 152.500 169.159 M 69 280.500 L 69 293 162.500 293 L 256 293 256 280.500 L 256 268 162.500 268 L 69 268 69 280.500" stroke="none" fill="black" fill-rule="evenodd"/>
</svg>